<svg width="100" height="101" viewBox="0 0 100 101" fill="none" xmlns="http://www.w3.org/2000/svg">
<mask id="path-1-inside-1_1_8" fill="white">
<path fill-rule="evenodd" clip-rule="evenodd" d="M99.9999 62.979C92.573 69.4312 83.0073 73.4949 72.4429 73.9256C47.6137 74.9377 26.6705 55.4983 25.665 30.5065C25.2134 19.2843 28.8588 8.85072 35.2608 0.668687C14.5914 7.37621 -0.255342 27.0113 0.00324963 50.0165C0.321275 78.3092 23.3656 100.985 51.4742 100.665C74.7245 100.401 94.157 84.4847 99.9999 62.979Z"/>
</mask>
<path d="M99.9999 62.979L105.79 64.5521L110.965 45.505L96.0649 58.4495L99.9999 62.979ZM72.4429 73.9256L72.6873 79.9206L72.6873 79.9206L72.4429 73.9256ZM25.665 30.5065L31.6601 30.2653L31.6601 30.2653L25.665 30.5065ZM35.2608 0.668687L39.9862 4.36608L52.0876 -11.0998L33.4088 -5.03833L35.2608 0.668687ZM0.00324963 50.0165L6.00287 49.9491L0.00324963 50.0165ZM51.4742 100.665L51.4058 94.6657L51.4058 94.6657L51.4742 100.665ZM96.0649 58.4495C89.626 64.0435 81.3497 67.5575 72.1985 67.9305L72.6873 79.9206C84.6649 79.4323 95.52 74.819 103.935 67.5084L96.0649 58.4495ZM72.1985 67.9305C50.7183 68.8062 32.5339 51.9817 31.6601 30.2653L19.6698 30.7477C20.8072 59.0149 44.5092 81.0692 72.6873 79.9206L72.1985 67.9305ZM31.6601 30.2653C31.2678 20.5139 34.4304 11.4666 39.9862 4.36608L30.5354 -3.0287C23.2872 6.23486 19.1591 18.0546 19.6698 30.7477L31.6601 30.2653ZM6.00287 49.9491C5.77437 29.6211 18.8901 12.2893 37.1128 6.37571L33.4088 -5.03833C10.2928 2.46316 -6.28506 24.4014 -5.99637 50.084L6.00287 49.9491ZM51.4058 94.6657C26.648 94.9477 6.28406 74.9649 6.00287 49.9491L-5.99637 50.084C-5.64151 81.6535 20.0832 107.023 51.5425 106.665L51.4058 94.6657ZM94.2098 61.4059C89.0454 80.4144 71.8802 94.4326 51.4058 94.6657L51.5425 106.665C77.5687 106.369 99.2687 88.5551 105.79 64.5521L94.2098 61.4059Z" fill="white" mask="url(#path-1-inside-1_1_8)"/>
</svg>
