<svg width="170" height="170" viewBox="0 0 170 170" fill="none" xmlns="http://www.w3.org/2000/svg">
<path fill-rule="evenodd" clip-rule="evenodd" d="M167 89.0534C168.657 89.0534 170 87.7103 170 86.0534C170 84.3966 168.657 83.0534 167 83.0534H139.26C137.603 83.0534 136.26 84.3966 136.26 86.0534C136.26 87.7103 137.603 89.0534 139.26 89.0534H167ZM146.448 25.3767C147.62 26.5483 147.62 28.4478 146.448 29.6193L126.833 49.2348C125.661 50.4064 123.762 50.4064 122.59 49.2348C121.419 48.0632 121.419 46.1637 122.59 44.9922L142.206 25.3767C143.377 24.2051 145.277 24.2051 146.448 25.3767ZM144.959 145.151C143.787 146.322 141.888 146.322 140.716 145.151L121.101 125.535C119.929 124.364 119.929 122.464 121.101 121.293C122.272 120.121 124.172 120.121 125.343 121.293L144.959 140.908C146.13 142.08 146.13 143.979 144.959 145.151ZM86.0534 0C87.7103 0 89.0534 1.34315 89.0534 3V30.7405C89.0534 32.3973 87.7103 33.7405 86.0534 33.7405C84.3966 33.7405 83.0534 32.3973 83.0534 30.7405V3C83.0534 1.34315 84.3966 0 86.0534 0ZM25.1846 139.418C24.013 140.59 24.013 142.489 25.1846 143.661C26.3562 144.833 28.2557 144.833 29.4272 143.661L49.0427 124.045C50.2143 122.874 50.2143 120.974 49.0427 119.803C47.8711 118.631 45.9716 118.631 44.8001 119.803L25.1846 139.418ZM30.9171 23.8869C29.7455 22.7153 27.846 22.7153 26.6744 23.8869C25.5028 25.0585 25.5028 26.958 26.6744 28.1295L46.2899 47.745C47.4614 48.9166 49.3609 48.9166 50.5325 47.745C51.7041 46.5734 51.7041 44.6739 50.5325 43.5024L30.9171 23.8869ZM83.9466 170C82.2897 170 80.9466 168.657 80.9466 167V139.26C80.9466 137.603 82.2897 136.26 83.9466 136.26C85.6034 136.26 86.9466 137.603 86.9466 139.26V167C86.9466 168.657 85.6034 170 83.9466 170ZM0 83.9466C0 82.2897 1.34314 80.9466 3 80.9466H30.7405C32.3973 80.9466 33.7405 82.2897 33.7405 83.9466C33.7405 85.6034 32.3973 86.9466 30.7405 86.9466H3C1.34314 86.9466 0 85.6034 0 83.9466ZM127.176 85C127.176 61.7071 108.293 42.8244 85 42.8244C61.7071 42.8244 42.8244 61.7071 42.8244 85C42.8244 108.293 61.7071 127.176 85 127.176C108.293 127.176 127.176 108.293 127.176 85Z" fill="#FFB800"/>
</svg>
